<svg width="2560" height="388" viewBox="0 0 2560 388" fill="none" xmlns="http://www.w3.org/2000/svg">
<path d="M136.068 225.5V157.82H146.34L170.34 202.076L194.244 157.82H204.324V225.5H193.188V179.9L173.796 215.228H166.596L147.204 180.092V225.5H136.068ZM254.356 226.46C247.828 226.46 242.1 225.02 237.172 222.14C232.308 219.26 228.532 215.228 225.844 210.044C223.156 204.796 221.812 198.652 221.812 191.612C221.812 184.508 223.156 178.364 225.844 173.18C228.532 167.996 232.308 163.996 237.172 161.18C242.036 158.3 247.764 156.86 254.356 156.86C260.948 156.86 266.676 158.3 271.54 161.18C276.404 163.996 280.18 167.996 282.868 173.18C285.556 178.364 286.9 184.476 286.9 191.516C286.9 198.62 285.556 204.796 282.868 210.044C280.18 215.228 276.404 219.26 271.54 222.14C266.676 225.02 260.948 226.46 254.356 226.46ZM254.356 215.9C260.564 215.9 265.396 213.756 268.852 209.468C272.308 205.18 274.036 199.228 274.036 191.612C274.036 183.932 272.308 177.98 268.852 173.756C265.46 169.532 260.628 167.42 254.356 167.42C248.148 167.42 243.316 169.532 239.86 173.756C236.404 177.98 234.676 183.932 234.676 191.612C234.676 199.228 236.404 205.18 239.86 209.468C243.316 213.756 248.148 215.9 254.356 215.9ZM304.195 225.5V157.82H333.571C340.995 157.82 346.723 159.612 350.755 163.196C354.787 166.716 356.803 171.676 356.803 178.076C356.803 183.132 355.491 187.324 352.867 190.652C350.243 193.916 346.467 196.124 341.539 197.276C344.803 198.3 347.491 200.764 349.603 204.668L360.931 225.5H347.395L335.683 203.9C334.531 201.788 333.155 200.348 331.555 199.58C330.019 198.812 328.035 198.428 325.603 198.428H316.483V225.5H304.195ZM316.483 189.308H331.459C340.419 189.308 344.899 185.66 344.899 178.364C344.899 171.132 340.419 167.516 331.459 167.516H316.483V189.308ZM397.948 226.46C392.636 226.46 387.708 225.788 383.164 224.444C378.62 223.036 374.78 221.148 371.644 218.78L375.388 209.084C378.524 211.324 381.948 213.052 385.66 214.268C389.436 215.484 393.532 216.092 397.948 216.092C403.004 216.092 406.684 215.26 408.988 213.596C411.292 211.868 412.444 209.66 412.444 206.972C412.444 204.732 411.612 202.972 409.948 201.692C408.348 200.412 405.564 199.356 401.596 198.524L391.036 196.316C379.004 193.756 372.988 187.58 372.988 177.788C372.988 173.564 374.108 169.884 376.348 166.748C378.588 163.612 381.692 161.18 385.66 159.452C389.628 157.724 394.204 156.86 399.388 156.86C403.996 156.86 408.316 157.564 412.348 158.972C416.38 160.316 419.74 162.236 422.428 164.732L418.684 173.948C413.372 169.468 406.908 167.228 399.292 167.228C394.876 167.228 391.42 168.156 388.924 170.012C386.428 171.868 385.18 174.3 385.18 177.308C385.18 179.612 385.948 181.468 387.484 182.876C389.02 184.22 391.644 185.276 395.356 186.044L405.82 188.252C412.156 189.596 416.86 191.708 419.932 194.588C423.068 197.468 424.636 201.308 424.636 206.108C424.636 210.14 423.548 213.692 421.372 216.764C419.196 219.836 416.092 222.236 412.06 223.964C408.092 225.628 403.388 226.46 397.948 226.46ZM439.983 225.5V157.82H452.271V186.044H487.119V157.82H499.407V225.5H487.119V196.316H452.271V225.5H439.983ZM547.161 226.46C537.881 226.46 530.777 224.06 525.849 219.26C520.985 214.396 518.553 207.228 518.553 197.756V157.82H530.841V197.66C530.841 203.74 532.217 208.316 534.969 211.388C537.785 214.396 541.849 215.9 547.161 215.9C557.977 215.9 563.385 209.82 563.385 197.66V157.82H575.577V197.756C575.577 207.228 573.177 214.396 568.377 219.26C563.577 224.06 556.505 226.46 547.161 226.46Z" fill="#24273A"/>
<path d="M2033.66 225.5V157.82H2042.87L2079.26 205.052V157.82H2090.68V225.5H2081.56L2045.08 178.076V225.5H2033.66ZM2110.27 225.5V157.82H2155.29V167.612H2122.08V186.236H2153.18V196.028H2122.08V215.708H2155.29V225.5H2110.27ZM2202.59 226.46C2196.07 226.46 2190.34 225.02 2185.41 222.14C2180.55 219.26 2176.77 215.228 2174.08 210.044C2171.39 204.796 2170.05 198.652 2170.05 191.612C2170.05 184.508 2171.39 178.364 2174.08 173.18C2176.77 167.996 2180.55 163.996 2185.41 161.18C2190.27 158.3 2196 156.86 2202.59 156.86C2209.19 156.86 2214.91 158.3 2219.78 161.18C2224.64 163.996 2228.42 167.996 2231.11 173.18C2233.79 178.364 2235.14 184.476 2235.14 191.516C2235.14 198.62 2233.79 204.796 2231.11 210.044C2228.42 215.228 2224.64 219.26 2219.78 222.14C2214.91 225.02 2209.19 226.46 2202.59 226.46ZM2202.59 215.9C2208.8 215.9 2213.63 213.756 2217.09 209.468C2220.55 205.18 2222.27 199.228 2222.27 191.612C2222.27 183.932 2220.55 177.98 2217.09 173.756C2213.7 169.532 2208.87 167.42 2202.59 167.42C2196.39 167.42 2191.55 169.532 2188.1 173.756C2184.64 177.98 2182.91 183.932 2182.91 191.612C2182.91 199.228 2184.64 205.18 2188.1 209.468C2191.55 213.756 2196.39 215.9 2202.59 215.9ZM2272.44 225.5L2242.3 157.82H2255.45L2277.82 209.756L2300.19 157.82H2312.86L2282.71 225.5H2272.44ZM2323.98 225.5V157.82H2336.27V225.5H2323.98ZM2355.97 225.5V157.82H2366.25L2390.25 202.076L2414.15 157.82H2424.23V225.5H2413.09V179.9L2393.7 215.228H2386.5L2367.11 180.092V225.5H2355.97Z" fill="#24273A"/>
</svg>
